<?xml version="1.0" standalone="no"?>
<!DOCTYPE svg PUBLIC "-//W3C//DTD SVG 20010904//EN" "http://www.w3.org/TR/2001/REC-SVG-20010904/DTD/svg10.dtd">
<!--
	/*
	 * coldbite Engine
	 *
	 * Copyright (c) 2024. All rights reserved.
	 *
	 * This source code is licensed under the MIT License found in the
	 * LICENSE file in the root directory of this source tree.
	 *
	 * @author  Adrian Preuß
	 * @version 1.0.0
	 * @created 11.03.2018
	 * @updated 21.08.2025
	 */
-->
<svg version="1.0"	xmlns="http://www.w3.org/2000/svg" width="320.000000pt" height="320.000000pt" viewBox="0 0 320.000000 320.000000" preserveAspectRatio="xMidYMid meet">
	<g transform="translate(0.000000,320.000000) scale(0.100000,-0.100000)" fill="#000000" stroke="none">
		<path d="M1671 3078 c-29 -73 -69 -197 -85 -265 l-18 -73 78 -137 78 -136 13 38 c7 21 27 90 44 152 l32 113 -59 170 c-32 94 -61 170 -64 170 -3 0 -11 -15 -19 -32z"/>
		<path d="M781 2684 c0 -82 3 -181 7 -220 l8 -71 99 -119 c95 -113 244 -273 231 -247 -4 7 -29 106 -55 221 -47 198 -52 213 -104 298 -70 116 -124 199 -159 248 l-28 39 1 -149z"/>
 		<path d="M1575 2486 c-16 -88 -16 -100 0 -178 9 -46 34 -145 56 -221 21 -77 39 -142 39 -145 0 -4 5 0 10 9 5 8 12 106 16 217 l7 202 -49 105 c-27 57 -52 105 -56 105 -3 0 -14 -42 -23 -94z"/>
 		<path d="M2490 2486 c-129 -97 -123 -85 -110 -212 13 -131 20 -174 29 -174 4 0 24 30 45 68 22 37 54 85 71 107 28 34 34 53 44 130 6 50 14 102 16 118 3 15 1 27 -3 27 -4 0 -45 -29 -92 -64z"/>
 		<path d="M1737 2184 c-5 -16 -21 -290 -30 -512 -3 -70 -19 -94 -63 -94 -32 0 -64 33 -64 66 0 12 11 37 25 56 23 31 25 43 25 134 0 76 -6 129 -27 214 -15 63 -32 111 -38 109 -5 -2 -9 -13 -7 -23 1 -11 -20 -113 -48 -227 -27 -114 -50 -223 -50 -243 0 -20 9 -70 19 -112 11 -43 27 -114 35 -159 9 -46 27 -104 41 -130 l25 -48 -5 125 c-7 156 9 197 20 49 8 -113 11 -129 30 -129 16 0 78 118 98 186 23 77 39 104 118 188 70 75 72 78 62 109 -77 233 -161 458 -166 441z"/>
 		<path d="M837 2163 c-4 -20 21 -71 112 -231 97 -173 129 -219 195 -289 43 -46 82 -83 86 -83 5 0 0 37 -10 83 -19 86 -87 252 -121 296 -49 62 -232 251 -244 251 -7 0 -15 -12 -18 -27z"/>
 		<path d="M2296 2063 c-22 -125 -48 -322 -44 -335 2 -6 37 56 78 137 65 132 72 149 57 160 -9 6 -24 36 -34 65 -10 30 -23 55 -29 57 -8 3 -18 -29 -28 -84z"/>
 		<path d="M2224 2029 c-16 -25 -54 -92 -84 -149 -50 -93 -72 -121 -221 -277 -109 -114 -177 -194 -197 -231 -30 -56 -87 -211 -80 -218 4 -3 58 8 96 20 21 7 22 5 16 -19 -6 -26 -6 -27 17 -15 13 7 45 28 72 46 26 19 47 32 47 29 0 -3 -25 -37 -55 -76 -30 -39 -55 -76 -55 -82 0 -11 97 -6 247 14 l91 12 11 57 c14 69 59 136 133 196 29 24 56 44 61 44 4 0 -7 27 -24 61 -24 48 -34 60 -49 56 -10 -3 -67 -30 -125 -62 -78 -42 -109 -64 -117 -83 -19 -49 -25 -57 -51 -70 -52 -25 -91 23 -64 77 8 16 13 40 10 53 -5 26 72 198 89 198 6 0 7 -8 3 -17 -4 -10 -9 -42 -12 -70 -7 -65 -4 -66 102 -13 115 58 128 70 116 103 -8 21 -2 74 25 233 19 113 33 211 31 218 -2 6 -17 -10 -33 -35z"/>
 		<path d="M330 1858 c0 -7 13 -35 28 -63 23 -42 34 -52 72 -65 25 -8 48 -19 51 -24 4 -4 10 -3 14 4 4 7 2 16 -6 20 -7 5 -27 37 -44 72 -29 61 -31 63 -72 66 -30 2 -43 -1 -43 -10z"/>
 		<path d="M1281 1631 c-12 -8 -13 -18 -3 -63 15 -63 164 -334 182 -330 7 1 18 -3 26 -9 12 -10 14 -3 14 42 -1 30 -7 68 -15 84 -13 30 -13 29 -14 -27 -1 -31 -5 -59 -10 -62 -9 -6 -14 20 -36 186 -16 119 -30 148 -80 172 -38 18 -45 19 -64 7z"/>
 		<path d="M2969 1612 l-116 -25 -17 -125 c-9 -68 -15 -126 -13 -128 2 -2 51 31 110 74 100 72 109 82 147 155 48 90 57 85 -111 49z"/>
 		<path d="M1037 1543 c-66 -82 -129 -185 -119 -194 4 -4 68 -33 142 -65 94 -40 147 -57 177 -57 24 0 45 2 48 5 10 9 -26 160 -47 203 -20 38 -122 167 -138 173 -5 2 -33 -28 -63 -65z"/>
		<path d="M208 1431 c4 -38 7 -41 46 -52 22 -5 55 -14 73 -19 35 -9 53 2 53 35 0 33 -12 41 -75 54 -33 6 -69 14 -80 17 -19 5 -20 1 -17 -35z"/>
		<path d="M2774 1420 c-20 -8 -164 -169 -164 -184 0 -3 14 -6 31 -6 37 0 77 38 127 123 37 61 38 79 6 67z"/>
		<path d="M886 1283 c-29 -91 -30 -120 -6 -133 11 -6 33 -10 47 -8 21 2 29 10 35 36 5 17 14 32 21 32 7 0 19 5 27 10 13 9 12 13 -6 28 -12 9 -40 32 -62 50 l-40 32 -16 -47z"/>
		<path d="M2420 1311 c-47 -10 -98 -24 -114 -32 -44 -21 -126 -144 -126 -188 0 -46 22 -78 60 -86 45 -10 85 20 139 106 27 41 76 108 110 147 71 83 72 82 -69 53z"/>
		<path d="M1322 1225 c-12 -35 -19 -71 -16 -79 3 -9 3 -16 0 -16 -4 0 -56 25 -116 55 -60 30 -112 55 -114 55 -3 0 1 -17 8 -38 16 -43 9 -64 -32 -98 l-25 -20 21 -46 c18 -42 24 -46 63 -52 24 -4 56 -9 71 -12 31 -6 68 -47 68 -75 0 -17 3 -16 48 5 26 13 64 27 84 30 68 12 53 26 -29 27 l-78 0 69 20 c38 11 77 26 89 34 19 13 17 15 -37 50 -31 19 -56 40 -56 46 0 6 13 16 30 22 28 10 29 13 23 57 l-5 45 37 -53 c42 -58 53 -61 36 -9 -12 34 -45 71 -91 100 l-25 16 -23 -64z"/>
		<path d="M2620 1209 c-47 -5 -97 -14 -112 -20 -32 -13 -109 -93 -132 -137 -15 -30 -15 -32 0 -32 19 0 348 160 379 184 19 15 18 15 -15 14 -19 0 -73 -5 -120 -9z"/>
		<path d="M127 1088 c54 -62 118 -133 143 -159 l45 -47 178 -7 c98 -4 180 -5 183 -2 2 2 -47 52 -109 110 -108 100 -116 106 -148 101 -26 -4 -67 6 -164 41 -111 41 -213 75 -223 75 -2 0 41 -51 95 -112z"/>
		<path d="M655 987 c61 -56 288 -187 324 -187 10 0 49 13 87 29 38 16 77 32 87 35 21 6 21 15 2 40 -11 15 -51 25 -182 47 -142 24 -260 52 -358 84 -11 4 7 -18 40 -48z"/>
		<path d="M1930 1029 c-146 -16 -209 -30 -204 -43 3 -7 41 -25 85 -41 92 -32 99 -44 11 -20 -33 9 -68 15 -78 13 -39 -7 -13 -24 73 -46 68 -17 76 -21 38 -17 -27 3 -77 8 -110 11 l-60 5 39 -35 c22 -20 63 -44 94 -53 42 -13 56 -23 65 -45 16 -38 146 -97 237 -108 36 -5 89 -17 118 -28 l53 -20 25 40 c14 22 23 42 21 45 -3 2 -75 29 -161 58 -178 62 -191 69 -207 108 -17 41 7 86 76 138 30 23 55 43 55 45 0 6 -87 2 -170 -7z m-3 -125 c-3 -3 -12 -4 -19 -1 -8 3 -5 6 6 6 11 1 17 -2 13 -5z"/>
		<path d="M2082 910 c-47 -27 -61 -50 -30 -50 6 0 76 -29 156 -65 79 -36 148 -63 153 -60 11 8 49 131 49 161 0 22 -3 24 -38 18 -21 -3 -76 1 -123 10 -110 21 -105 21 -167 -14z"/>
		<path d="M1311 899 c-52 -21 -54 -29 -10 -68 49 -44 61 -98 34 -152 -20 -39 -87 -130 -92 -125 -2 2 8 27 22 57 14 31 25 72 25 97 0 40 -2 44 -37 59 -54 22 -144 13 -213 -22 -75 -37 -140 -78 -140 -88 0 -24 103 -162 174 -233 90 -90 189 -154 295 -189 65 -22 196 -46 205 -38 6 6 -34 165 -53 207 -10 23 -36 63 -59 89 -23 27 -42 50 -42 53 0 3 22 47 49 97 60 114 70 147 41 147 -13 0 -20 7 -20 19 0 14 -9 20 -35 23 -19 2 -39 0 -45 -6 -5 -5 -12 -7 -15 -4 -4 3 8 22 24 41 17 19 31 37 31 41 0 10 -112 6 -139 -5z"/>
		<path d="M1668 784 c4 -24 3 -25 -17 -15 -19 11 -21 9 -21 -21 0 -53 19 -207 37 -295 l16 -83 36 72 c43 85 73 111 131 110 46 -1 150 -46 243 -105 l55 -35 29 31 c16 18 45 52 63 75 40 52 36 56 -65 72 -38 6 -88 15 -110 20 -69 15 -228 81 -263 108 -126 101 -143 109 -134 66z"/>
		<path d="M850 756 c0 -23 11 -46 22 -46 5 0 21 9 35 20 l25 19 -29 6 c-15 4 -34 8 -40 11 -7 2 -13 -3 -13 -10z"/>
		<path d="M1562 700 c-18 -30 -32 -60 -32 -66 0 -5 24 -35 53 -65 l53 -55 -13 98 c-8 54 -17 108 -22 120 -7 21 -11 18 -39 -32z"/>
		<path d="M1554 498 c17 -58 56 -235 56 -255 0 -37 11 -53 36 -53 29 0 30 15 9 126 -17 90 -54 173 -86 192 -20 13 -21 12 -15 -10z"/>
		<path d="M1813 480 c-48 -19 -103 -149 -103 -242 0 -33 3 -38 23 -38 44 0 216 68 290 113 103 64 107 71 54 87 -23 7 -77 30 -119 51 -79 40 -105 45 -145 29z"/>
	</g>
</svg>
